solid CATIA STL
  facet normal  0.000000e+000  0.000000e+000  1.000000e+000
    outer loop
      vertex -9.750000e+000 -6.150000e+000  2.800000e+000
      vertex -8.234444e+000 -4.138533e+000  2.800000e+000
      vertex -8.670947e+000 -4.518310e+000  2.800000e+000
    endloop
  endfacet
  facet normal  0.000000e+000  0.000000e+000  1.000000e+000
    outer loop
      vertex -9.750000e+000 -6.150000e+000  2.800000e+000
      vertex -8.670947e+000 -4.518310e+000  2.800000e+000
      vertex -9.186328e+000 -4.781270e+000  2.800000e+000
    endloop
  endfacet
  facet normal  0.000000e+000  0.000000e+000  1.000000e+000
    outer loop
      vertex -9.750000e+000 -6.150000e+000  2.800000e+000
      vertex -9.186328e+000 -4.781270e+000  2.800000e+000
      vertex -9.750000e+000 -4.911806e+000  2.800000e+000
    endloop
  endfacet
  facet normal  0.000000e+000  0.000000e+000  1.000000e+000
    outer loop
      vertex  7.625000e+000 -2.550000e+000  2.800000e+000
      vertex -7.695477e+000 -1.975719e+000  2.800000e+000
      vertex -7.625000e+000 -2.550000e+000  2.800000e+000
    endloop
  endfacet
  facet normal  -0.000000e+000  0.000000e+000  1.000000e+000
    outer loop
      vertex  7.625000e+000 -2.550000e+000  2.800000e+000
      vertex -7.625000e+000 -2.550000e+000  2.800000e+000
      vertex -7.695477e+000 -3.124281e+000  2.800000e+000
    endloop
  endfacet
  facet normal  -0.000000e+000  0.000000e+000  1.000000e+000
    outer loop
      vertex  7.625000e+000 -2.550000e+000  2.800000e+000
      vertex -7.695477e+000 -3.124281e+000  2.800000e+000
      vertex -7.902725e+000 -3.664479e+000  2.800000e+000
    endloop
  endfacet
  facet normal  -0.000000e+000  0.000000e+000  1.000000e+000
    outer loop
      vertex  7.625000e+000 -2.550000e+000  2.800000e+000
      vertex -7.902725e+000 -3.664479e+000  2.800000e+000
      vertex -8.234444e+000 -4.138533e+000  2.800000e+000
    endloop
  endfacet
  facet normal  -0.000000e+000  0.000000e+000  1.000000e+000
    outer loop
      vertex  7.625000e+000 -2.550000e+000  2.800000e+000
      vertex -8.234444e+000 -4.138533e+000  2.800000e+000
      vertex -9.750000e+000 -6.150000e+000  2.800000e+000
    endloop
  endfacet
  facet normal  -0.000000e+000  0.000000e+000  9.999999e-001
    outer loop
      vertex -9.750000e+000  1.075000e+001  2.800000e+000
      vertex -9.750000e+000 -1.881945e-001  2.800000e+000
      vertex -9.186328e+000 -3.187305e-001  2.800000e+000
    endloop
  endfacet
  facet normal  -0.000000e+000  -0.000000e+000  1.000000e+000
    outer loop
      vertex -9.750000e+000  1.075000e+001  2.800000e+000
      vertex -9.186328e+000 -3.187305e-001  2.800000e+000
      vertex -8.670947e+000 -5.816901e-001  2.800000e+000
    endloop
  endfacet
  facet normal  -0.000000e+000  -0.000000e+000  9.999999e-001
    outer loop
      vertex -9.750000e+000  1.075000e+001  2.800000e+000
      vertex -8.670947e+000 -5.816901e-001  2.800000e+000
      vertex -8.234444e+000 -9.614668e-001  2.800000e+000
    endloop
  endfacet
  facet normal  -0.000000e+000  -0.000000e+000  1.000000e+000
    outer loop
      vertex -9.750000e+000  1.075000e+001  2.800000e+000
      vertex -8.234444e+000 -9.614668e-001  2.800000e+000
      vertex -7.902725e+000 -1.435521e+000  2.800000e+000
    endloop
  endfacet
  facet normal  -0.000000e+000  -0.000000e+000  9.999999e-001
    outer loop
      vertex -9.750000e+000  1.075000e+001  2.800000e+000
      vertex -7.902725e+000 -1.435521e+000  2.800000e+000
      vertex -7.695477e+000 -1.975719e+000  2.800000e+000
    endloop
  endfacet
  facet normal  -0.000000e+000  -0.000000e+000  1.000000e+000
    outer loop
      vertex -9.750000e+000  1.075000e+001  2.800000e+000
      vertex -7.695477e+000 -1.975719e+000  2.800000e+000
      vertex  7.625000e+000 -2.550000e+000  2.800000e+000
    endloop
  endfacet
  facet normal  0.000000e+000  -0.000000e+000  1.000000e+000
    outer loop
      vertex -9.750000e+000  1.075000e+001  2.800000e+000
      vertex  7.625000e+000 -2.550000e+000  2.800000e+000
      vertex  7.695477e+000 -1.975719e+000  2.800000e+000
    endloop
  endfacet
  facet normal  0.000000e+000  -0.000000e+000  1.000000e+000
    outer loop
      vertex -9.750000e+000  1.075000e+001  2.800000e+000
      vertex  7.695477e+000 -1.975719e+000  2.800000e+000
      vertex  7.902725e+000 -1.435521e+000  2.800000e+000
    endloop
  endfacet
  facet normal  0.000000e+000  -0.000000e+000  9.999999e-001
    outer loop
      vertex -9.750000e+000  1.075000e+001  2.800000e+000
      vertex  7.902725e+000 -1.435521e+000  2.800000e+000
      vertex  8.234444e+000 -9.614668e-001  2.800000e+000
    endloop
  endfacet
  facet normal  0.000000e+000  -0.000000e+000  1.000000e+000
    outer loop
      vertex -9.750000e+000  1.075000e+001  2.800000e+000
      vertex  8.234444e+000 -9.614668e-001  2.800000e+000
      vertex  8.670947e+000 -5.816901e-001  2.800000e+000
    endloop
  endfacet
  facet normal  0.000000e+000  -0.000000e+000  1.000000e+000
    outer loop
      vertex -9.750000e+000  1.075000e+001  2.800000e+000
      vertex  8.670947e+000 -5.816901e-001  2.800000e+000
      vertex  9.186328e+000 -3.187305e-001  2.800000e+000
    endloop
  endfacet
  facet normal  0.000000e+000  -0.000000e+000  1.000000e+000
    outer loop
      vertex -9.750000e+000  1.075000e+001  2.800000e+000
      vertex  9.186328e+000 -3.187305e-001  2.800000e+000
      vertex  9.750000e+000 -1.881945e-001  2.800000e+000
    endloop
  endfacet
  facet normal  0.000000e+000  -0.000000e+000  1.000000e+000
    outer loop
      vertex -9.750000e+000  1.075000e+001  2.800000e+000
      vertex  9.750000e+000 -1.881945e-001  2.800000e+000
      vertex  9.750000e+000  1.075000e+001  2.800000e+000
    endloop
  endfacet
  facet normal  0.000000e+000  -0.000000e+000  1.000000e+000
    outer loop
      vertex -9.750000e+000 -6.150000e+000  2.800000e+000
      vertex  9.750000e+000 -6.150000e+000  2.800000e+000
      vertex  9.750000e+000 -4.911806e+000  2.800000e+000
    endloop
  endfacet
  facet normal  0.000000e+000  0.000000e+000  1.000000e+000
    outer loop
      vertex -9.750000e+000 -6.150000e+000  2.800000e+000
      vertex  9.750000e+000 -4.911806e+000  2.800000e+000
      vertex  9.186328e+000 -4.781270e+000  2.800000e+000
    endloop
  endfacet
  facet normal  0.000000e+000  0.000000e+000  1.000000e+000
    outer loop
      vertex -9.750000e+000 -6.150000e+000  2.800000e+000
      vertex  9.186328e+000 -4.781270e+000  2.800000e+000
      vertex  8.670947e+000 -4.518310e+000  2.800000e+000
    endloop
  endfacet
  facet normal  0.000000e+000  0.000000e+000  1.000000e+000
    outer loop
      vertex -9.750000e+000 -6.150000e+000  2.800000e+000
      vertex  8.670947e+000 -4.518310e+000  2.800000e+000
      vertex  8.234444e+000 -4.138533e+000  2.800000e+000
    endloop
  endfacet
  facet normal  0.000000e+000  0.000000e+000  1.000000e+000
    outer loop
      vertex -9.750000e+000 -6.150000e+000  2.800000e+000
      vertex  8.234444e+000 -4.138533e+000  2.800000e+000
      vertex  7.902725e+000 -3.664479e+000  2.800000e+000
    endloop
  endfacet
  facet normal  0.000000e+000  0.000000e+000  1.000000e+000
    outer loop
      vertex -9.750000e+000 -6.150000e+000  2.800000e+000
      vertex  7.902725e+000 -3.664479e+000  2.800000e+000
      vertex  7.695477e+000 -3.124281e+000  2.800000e+000
    endloop
  endfacet
  facet normal  0.000000e+000  0.000000e+000  1.000000e+000
    outer loop
      vertex -9.750000e+000 -6.150000e+000  2.800000e+000
      vertex  7.695477e+000 -3.124281e+000  2.800000e+000
      vertex  7.625000e+000 -2.550000e+000  2.800000e+000
    endloop
  endfacet
  facet normal  1.000000e+000  0.000000e+000  0.000000e+000
    outer loop
      vertex -9.750000e+000 -1.881945e-001  2.800000e+000
      vertex -9.750000e+000  1.075000e+001  2.800000e+000
      vertex -9.750000e+000 -1.881945e-001  4.300000e+000
    endloop
  endfacet
  facet normal  1.000000e+000  -0.000000e+000  0.000000e+000
    outer loop
      vertex -9.750000e+000 -1.881945e-001  4.300000e+000
      vertex -9.750000e+000  1.075000e+001  2.800000e+000
      vertex -9.750000e+000  1.075000e+001  4.300000e+000
    endloop
  endfacet
  facet normal  9.999999e-001  0.000000e+000  0.000000e+000
    outer loop
      vertex -9.750000e+000 -6.150000e+000  2.800000e+000
      vertex -9.750000e+000 -4.911806e+000  2.800000e+000
      vertex -9.750000e+000 -6.150000e+000  4.300000e+000
    endloop
  endfacet
  facet normal  9.999999e-001  -0.000000e+000  0.000000e+000
    outer loop
      vertex -9.750000e+000 -6.150000e+000  4.300000e+000
      vertex -9.750000e+000 -4.911806e+000  2.800000e+000
      vertex -9.750000e+000 -4.911806e+000  4.300000e+000
    endloop
  endfacet
  facet normal -9.999999e-001  0.000000e+000  0.000000e+000
    outer loop
      vertex  9.750000e+000 -4.911806e+000  2.800000e+000
      vertex  9.750000e+000 -6.150000e+000  2.800000e+000
      vertex  9.750000e+000 -4.911806e+000  4.300000e+000
    endloop
  endfacet
  facet normal -9.999999e-001  -0.000000e+000  0.000000e+000
    outer loop
      vertex  9.750000e+000 -4.911806e+000  4.300000e+000
      vertex  9.750000e+000 -6.150000e+000  2.800000e+000
      vertex  9.750000e+000 -6.150000e+000  4.300000e+000
    endloop
  endfacet
  facet normal -1.000000e+000  0.000000e+000  0.000000e+000
    outer loop
      vertex  9.750000e+000  1.075000e+001  2.800000e+000
      vertex  9.750000e+000 -1.881945e-001  2.800000e+000
      vertex  9.750000e+000  1.075000e+001  4.300000e+000
    endloop
  endfacet
  facet normal -1.000000e+000  -0.000000e+000  0.000000e+000
    outer loop
      vertex  9.750000e+000  1.075000e+001  4.300000e+000
      vertex  9.750000e+000 -1.881945e-001  2.800000e+000
      vertex  9.750000e+000 -1.881945e-001  4.300000e+000
    endloop
  endfacet
  facet normal  -0.000000e+000  0.000000e+000  1.000000e+000
    outer loop
      vertex  9.750000e+000  1.075000e+001  4.300000e+000
      vertex  9.750000e+000 -1.881945e-001  4.300000e+000
      vertex  1.031731e+001 -1.962929e-001  4.300000e+000
    endloop
  endfacet
  facet normal  -0.000000e+000  -0.000000e+000  1.000000e+000
    outer loop
      vertex  9.750000e+000  1.075000e+001  4.300000e+000
      vertex  1.031731e+001 -1.962929e-001  4.300000e+000
      vertex  1.086652e+001 -3.387173e-001  4.300000e+000
    endloop
  endfacet
  facet normal  -0.000000e+000  -0.000000e+000  1.000000e+000
    outer loop
      vertex  9.750000e+000  1.075000e+001  4.300000e+000
      vertex  1.086652e+001 -3.387173e-001  4.300000e+000
      vertex  1.136627e+001 -6.073395e-001  4.300000e+000
    endloop
  endfacet
  facet normal  -0.000000e+000  -0.000000e+000  1.000000e+000
    outer loop
      vertex  9.750000e+000  1.075000e+001  4.300000e+000
      vertex  1.136627e+001 -6.073395e-001  4.300000e+000
      vertex  1.178805e+001 -9.868293e-001  4.300000e+000
    endloop
  endfacet
  facet normal  -0.000000e+000  -0.000000e+000  1.000000e+000
    outer loop
      vertex  9.750000e+000  1.075000e+001  4.300000e+000
      vertex  1.178805e+001 -9.868293e-001  4.300000e+000
      vertex  1.210779e+001 -1.455529e+000  4.300000e+000
    endloop
  endfacet
  facet normal  -0.000000e+000  -0.000000e+000  1.000000e+000
    outer loop
      vertex  9.750000e+000  1.075000e+001  4.300000e+000
      vertex  1.210779e+001 -1.455529e+000  4.300000e+000
      vertex  1.230723e+001 -1.986691e+000  4.300000e+000
    endloop
  endfacet
  facet normal  0.000000e+000  0.000000e+000  1.000000e+000
    outer loop
      vertex -9.750000e+000  1.075000e+001  4.300000e+000
      vertex -1.230723e+001 -1.986691e+000  4.300000e+000
      vertex -1.210779e+001 -1.455529e+000  4.300000e+000
    endloop
  endfacet
  facet normal  0.000000e+000  0.000000e+000  1.000000e+000
    outer loop
      vertex -9.750000e+000  1.075000e+001  4.300000e+000
      vertex -1.210779e+001 -1.455529e+000  4.300000e+000
      vertex -1.178805e+001 -9.868293e-001  4.300000e+000
    endloop
  endfacet
  facet normal  0.000000e+000  0.000000e+000  1.000000e+000
    outer loop
      vertex -9.750000e+000  1.075000e+001  4.300000e+000
      vertex -1.178805e+001 -9.868293e-001  4.300000e+000
      vertex -1.136627e+001 -6.073395e-001  4.300000e+000
    endloop
  endfacet
  facet normal  0.000000e+000  0.000000e+000  1.000000e+000
    outer loop
      vertex -9.750000e+000  1.075000e+001  4.300000e+000
      vertex -1.136627e+001 -6.073395e-001  4.300000e+000
      vertex -1.086652e+001 -3.387173e-001  4.300000e+000
    endloop
  endfacet
  facet normal  0.000000e+000  0.000000e+000  1.000000e+000
    outer loop
      vertex -9.750000e+000  1.075000e+001  4.300000e+000
      vertex -1.086652e+001 -3.387173e-001  4.300000e+000
      vertex -1.031731e+001 -1.962929e-001  4.300000e+000
    endloop
  endfacet
  facet normal  0.000000e+000  0.000000e+000  1.000000e+000
    outer loop
      vertex -9.750000e+000  1.075000e+001  4.300000e+000
      vertex -1.031731e+001 -1.962929e-001  4.300000e+000
      vertex -9.750000e+000 -1.881945e-001  4.300000e+000
    endloop
  endfacet
  facet normal  0.000000e+000  -0.000000e+000  1.000000e+000
    outer loop
      vertex -1.275000e+001 -6.150000e+000  4.300000e+000
      vertex -9.750000e+000 -6.150000e+000  4.300000e+000
      vertex -9.750000e+000 -4.911806e+000  4.300000e+000
    endloop
  endfacet
  facet normal  0.000000e+000  0.000000e+000  1.000000e+000
    outer loop
      vertex -1.275000e+001 -6.150000e+000  4.300000e+000
      vertex -9.750000e+000 -4.911806e+000  4.300000e+000
      vertex -1.031731e+001 -4.903707e+000  4.300000e+000
    endloop
  endfacet
  facet normal  0.000000e+000  0.000000e+000  1.000000e+000
    outer loop
      vertex -1.275000e+001 -6.150000e+000  4.300000e+000
      vertex -1.031731e+001 -4.903707e+000  4.300000e+000
      vertex -1.086652e+001 -4.761283e+000  4.300000e+000
    endloop
  endfacet
  facet normal  0.000000e+000  0.000000e+000  1.000000e+000
    outer loop
      vertex -1.275000e+001 -6.150000e+000  4.300000e+000
      vertex -1.086652e+001 -4.761283e+000  4.300000e+000
      vertex -1.136627e+001 -4.492661e+000  4.300000e+000
    endloop
  endfacet
  facet normal  0.000000e+000  0.000000e+000  1.000000e+000
    outer loop
      vertex -1.275000e+001 -6.150000e+000  4.300000e+000
      vertex -1.136627e+001 -4.492661e+000  4.300000e+000
      vertex -1.178805e+001 -4.113171e+000  4.300000e+000
    endloop
  endfacet
  facet normal  0.000000e+000  0.000000e+000  1.000000e+000
    outer loop
      vertex -1.275000e+001 -6.150000e+000  4.300000e+000
      vertex -1.178805e+001 -4.113171e+000  4.300000e+000
      vertex -1.210779e+001 -3.644471e+000  4.300000e+000
    endloop
  endfacet
  facet normal  0.000000e+000  0.000000e+000  1.000000e+000
    outer loop
      vertex -1.275000e+001 -6.150000e+000  4.300000e+000
      vertex -1.210779e+001 -3.644471e+000  4.300000e+000
      vertex -1.230723e+001 -3.113309e+000  4.300000e+000
    endloop
  endfacet
  facet normal  0.000000e+000  0.000000e+000  9.999999e-001
    outer loop
      vertex -1.275000e+001 -6.150000e+000  4.300000e+000
      vertex -1.230723e+001 -3.113309e+000  4.300000e+000
      vertex -1.237500e+001 -2.550000e+000  4.300000e+000
    endloop
  endfacet
  facet normal  0.000000e+000  0.000000e+000  9.999999e-001
    outer loop
      vertex -1.425000e+001  1.375000e+001  4.300000e+000
      vertex -1.425000e+001 -1.375000e+001  4.300000e+000
      vertex -1.275000e+001 -1.225000e+001  4.300000e+000
    endloop
  endfacet
  facet normal  0.000000e+000  -0.000000e+000  1.000000e+000
    outer loop
      vertex -1.425000e+001  1.375000e+001  4.300000e+000
      vertex -1.275000e+001 -1.225000e+001  4.300000e+000
      vertex -1.275000e+001 -6.150000e+000  4.300000e+000
    endloop
  endfacet
  facet normal  0.000000e+000  -0.000000e+000  9.999999e-001
    outer loop
      vertex -1.425000e+001  1.375000e+001  4.300000e+000
      vertex -1.275000e+001 -6.150000e+000  4.300000e+000
      vertex -1.237500e+001 -2.550000e+000  4.300000e+000
    endloop
  endfacet
  facet normal  0.000000e+000  -0.000000e+000  1.000000e+000
    outer loop
      vertex -1.425000e+001  1.375000e+001  4.300000e+000
      vertex -1.237500e+001 -2.550000e+000  4.300000e+000
      vertex -1.230723e+001 -1.986691e+000  4.300000e+000
    endloop
  endfacet
  facet normal  0.000000e+000  -0.000000e+000  1.000000e+000
    outer loop
      vertex -1.425000e+001  1.375000e+001  4.300000e+000
      vertex -1.230723e+001 -1.986691e+000  4.300000e+000
      vertex -9.750000e+000  1.075000e+001  4.300000e+000
    endloop
  endfacet
  facet normal  0.000000e+000  -0.000000e+000  1.000000e+000
    outer loop
      vertex -1.425000e+001  1.375000e+001  4.300000e+000
      vertex -9.750000e+000  1.075000e+001  4.300000e+000
      vertex  1.425000e+001  1.375000e+001  4.300000e+000
    endloop
  endfacet
  facet normal  0.000000e+000  0.000000e+000  9.999999e-001
    outer loop
      vertex  1.275000e+001 -6.150000e+000  4.300000e+000
      vertex  1.237500e+001 -2.550000e+000  4.300000e+000
      vertex  1.230723e+001 -3.113309e+000  4.300000e+000
    endloop
  endfacet
  facet normal  0.000000e+000  0.000000e+000  1.000000e+000
    outer loop
      vertex  1.275000e+001 -6.150000e+000  4.300000e+000
      vertex  1.230723e+001 -3.113309e+000  4.300000e+000
      vertex  1.210779e+001 -3.644471e+000  4.300000e+000
    endloop
  endfacet
  facet normal  0.000000e+000  0.000000e+000  1.000000e+000
    outer loop
      vertex  1.275000e+001 -6.150000e+000  4.300000e+000
      vertex  1.210779e+001 -3.644471e+000  4.300000e+000
      vertex  1.178805e+001 -4.113171e+000  4.300000e+000
    endloop
  endfacet
  facet normal  0.000000e+000  0.000000e+000  1.000000e+000
    outer loop
      vertex  1.275000e+001 -6.150000e+000  4.300000e+000
      vertex  1.178805e+001 -4.113171e+000  4.300000e+000
      vertex  1.136627e+001 -4.492661e+000  4.300000e+000
    endloop
  endfacet
  facet normal  0.000000e+000  0.000000e+000  1.000000e+000
    outer loop
      vertex  1.275000e+001 -6.150000e+000  4.300000e+000
      vertex  1.136627e+001 -4.492661e+000  4.300000e+000
      vertex  1.086652e+001 -4.761283e+000  4.300000e+000
    endloop
  endfacet
  facet normal  0.000000e+000  0.000000e+000  1.000000e+000
    outer loop
      vertex  1.275000e+001 -6.150000e+000  4.300000e+000
      vertex  1.086652e+001 -4.761283e+000  4.300000e+000
      vertex  1.031731e+001 -4.903707e+000  4.300000e+000
    endloop
  endfacet
  facet normal  0.000000e+000  0.000000e+000  1.000000e+000
    outer loop
      vertex  1.275000e+001 -6.150000e+000  4.300000e+000
      vertex  1.031731e+001 -4.903707e+000  4.300000e+000
      vertex  9.750000e+000 -4.911806e+000  4.300000e+000
    endloop
  endfacet
  facet normal  0.000000e+000  0.000000e+000  1.000000e+000
    outer loop
      vertex  1.275000e+001 -6.150000e+000  4.300000e+000
      vertex  9.750000e+000 -4.911806e+000  4.300000e+000
      vertex  9.750000e+000 -6.150000e+000  4.300000e+000
    endloop
  endfacet
  facet normal  0.000000e+000  0.000000e+000  1.000000e+000
    outer loop
      vertex  1.425000e+001  1.375000e+001  4.300000e+000
      vertex -9.750000e+000  1.075000e+001  4.300000e+000
      vertex  9.750000e+000  1.075000e+001  4.300000e+000
    endloop
  endfacet
  facet normal  -0.000000e+000  0.000000e+000  1.000000e+000
    outer loop
      vertex  1.425000e+001  1.375000e+001  4.300000e+000
      vertex  9.750000e+000  1.075000e+001  4.300000e+000
      vertex  1.230723e+001 -1.986691e+000  4.300000e+000
    endloop
  endfacet
  facet normal  -0.000000e+000  0.000000e+000  1.000000e+000
    outer loop
      vertex  1.425000e+001  1.375000e+001  4.300000e+000
      vertex  1.230723e+001 -1.986691e+000  4.300000e+000
      vertex  1.237500e+001 -2.550000e+000  4.300000e+000
    endloop
  endfacet
  facet normal  -0.000000e+000  0.000000e+000  1.000000e+000
    outer loop
      vertex  1.425000e+001  1.375000e+001  4.300000e+000
      vertex  1.237500e+001 -2.550000e+000  4.300000e+000
      vertex  1.275000e+001 -6.150000e+000  4.300000e+000
    endloop
  endfacet
  facet normal  -0.000000e+000  0.000000e+000  1.000000e+000
    outer loop
      vertex  1.425000e+001  1.375000e+001  4.300000e+000
      vertex  1.275000e+001 -6.150000e+000  4.300000e+000
      vertex  1.275000e+001 -1.225000e+001  4.300000e+000
    endloop
  endfacet
  facet normal  -0.000000e+000  0.000000e+000  9.999999e-001
    outer loop
      vertex  1.425000e+001  1.375000e+001  4.300000e+000
      vertex  1.275000e+001 -1.225000e+001  4.300000e+000
      vertex  1.425000e+001 -1.375000e+001  4.300000e+000
    endloop
  endfacet
  facet normal  0.000000e+000  0.000000e+000  1.000000e+000
    outer loop
      vertex -1.425000e+001 -1.375000e+001  4.300000e+000
      vertex -8.250000e+000 -1.375000e+001  4.300000e+000
      vertex -1.275000e+001 -1.225000e+001  4.300000e+000
    endloop
  endfacet
  facet normal  -0.000000e+000  0.000000e+000  1.000000e+000
    outer loop
      vertex -1.275000e+001 -1.225000e+001  4.300000e+000
      vertex -8.250000e+000 -1.375000e+001  4.300000e+000
      vertex -8.250000e+000 -1.225000e+001  4.300000e+000
    endloop
  endfacet
  facet normal  0.000000e+000  0.000000e+000  1.000000e+000
    outer loop
      vertex  8.250000e+000 -1.375000e+001  4.300000e+000
      vertex  1.425000e+001 -1.375000e+001  4.300000e+000
      vertex  8.250000e+000 -1.225000e+001  4.300000e+000
    endloop
  endfacet
  facet normal  -0.000000e+000  0.000000e+000  1.000000e+000
    outer loop
      vertex  8.250000e+000 -1.225000e+001  4.300000e+000
      vertex  1.425000e+001 -1.375000e+001  4.300000e+000
      vertex  1.275000e+001 -1.225000e+001  4.300000e+000
    endloop
  endfacet
  facet normal  0.000000e+000  9.999660e-001  8.244234e-003
    outer loop
      vertex -1.028627e+001 -4.907683e+000  2.300000e+000
      vertex -9.750000e+000 -4.911806e+000  2.800000e+000
      vertex -9.713725e+000 -4.907683e+000  2.300000e+000
    endloop
  endfacet
  facet normal -2.256030e-001  9.741837e-001 -8.335786e-003
    outer loop
      vertex -9.713725e+000 -4.907683e+000  2.300000e+000
      vertex -9.750000e+000 -4.911806e+000  2.800000e+000
      vertex -9.186328e+000 -4.781270e+000  2.800000e+000
    endloop
  endfacet
  facet normal -2.393093e-001  9.709185e-001  6.947016e-003
    outer loop
      vertex -9.713725e+000 -4.907683e+000  2.300000e+000
      vertex -9.186328e+000 -4.781270e+000  2.800000e+000
      vertex -9.157813e+000 -4.770664e+000  2.300000e+000
    endloop
  endfacet
  facet normal -4.544729e-001  8.907328e-001 -7.024575e-003
    outer loop
      vertex -9.157813e+000 -4.770664e+000  2.300000e+000
      vertex -9.186328e+000 -4.781270e+000  2.800000e+000
      vertex -8.670947e+000 -4.518310e+000  2.800000e+000
    endloop
  endfacet
  facet normal -4.647164e-001  8.854417e-001  5.620340e-003
    outer loop
      vertex -9.157813e+000 -4.770664e+000  2.300000e+000
      vertex -8.670947e+000 -4.518310e+000  2.800000e+000
      vertex -8.650846e+000 -4.504587e+000  2.300000e+000
    endloop
  endfacet
  facet normal -6.563736e-001  7.544147e-001 -5.680769e-003
    outer loop
      vertex -8.650846e+000 -4.504587e+000  2.300000e+000
      vertex -8.670947e+000 -4.518310e+000  2.800000e+000
      vertex -8.234444e+000 -4.138533e+000  2.800000e+000
    endloop
  endfacet
  facet normal -6.631168e-001  7.485037e-001  4.262467e-003
    outer loop
      vertex -8.650846e+000 -4.504587e+000  2.300000e+000
      vertex -8.234444e+000 -4.138533e+000  2.800000e+000
      vertex -8.222287e+000 -4.124916e+000  2.300000e+000
    endloop
  endfacet
  facet normal -8.193212e-001  5.733187e-001 -4.306329e-003
    outer loop
      vertex -8.222287e+000 -4.124916e+000  2.300000e+000
      vertex -8.234444e+000 -4.138533e+000  2.800000e+000
      vertex -7.902725e+000 -3.664479e+000  2.800000e+000
    endloop
  endfacet
  facet normal -8.229801e-001  5.680630e-001  2.871976e-003
    outer loop
      vertex -8.222287e+000 -4.124916e+000  2.300000e+000
      vertex -7.902725e+000 -3.664479e+000  2.800000e+000
      vertex -7.897042e+000 -3.653718e+000  2.300000e+000
    endloop
  endfacet
  facet normal -9.336429e-001  3.581935e-001 -2.902625e-003
    outer loop
      vertex -7.897042e+000 -3.653718e+000  2.300000e+000
      vertex -7.902725e+000 -3.664479e+000  2.800000e+000
      vertex -7.695477e+000 -3.124281e+000  2.800000e+000
    endloop
  endfacet
  facet normal -9.350154e-001  3.546044e-001  1.451142e-003
    outer loop
      vertex -7.897042e+000 -3.653718e+000  2.300000e+000
      vertex -7.695477e+000 -3.124281e+000  2.800000e+000
      vertex -7.694013e+000 -3.118375e+000  2.300000e+000
    endloop
  endfacet
  facet normal -9.925526e-001  1.218083e-001 -1.467151e-003
    outer loop
      vertex -7.694013e+000 -3.118375e+000  2.300000e+000
      vertex -7.695477e+000 -3.124281e+000  2.800000e+000
      vertex -7.625000e+000 -2.550000e+000  2.800000e+000
    endloop
  endfacet
  facet normal -9.927089e-001  1.205366e-001  0.000000e+000
    outer loop
      vertex -7.694013e+000 -3.118375e+000  2.300000e+000
      vertex -7.625000e+000 -2.550000e+000  2.800000e+000
      vertex -7.625000e+000 -2.550000e+000  2.300000e+000
    endloop
  endfacet
  facet normal  4.647232e-001  8.854547e-001  1.500468e-003
    outer loop
      vertex -1.134915e+001 -4.504587e+000  2.300000e+000
      vertex -1.086652e+001 -4.761283e+000  4.300000e+000
      vertex -1.084219e+001 -4.770664e+000  2.300000e+000
    endloop
  endfacet
  facet normal  2.510241e-001  9.679797e-001 -1.486375e-003
    outer loop
      vertex -1.084219e+001 -4.770664e+000  2.300000e+000
      vertex -1.086652e+001 -4.761283e+000  4.300000e+000
      vertex -1.031731e+001 -4.903707e+000  4.300000e+000
    endloop
  endfacet
  facet normal  2.393146e-001  9.709404e-001  1.783561e-003
    outer loop
      vertex -1.084219e+001 -4.770664e+000  2.300000e+000
      vertex -1.031731e+001 -4.903707e+000  4.300000e+000
      vertex -1.028627e+001 -4.907683e+000  2.300000e+000
    endloop
  endfacet
  facet normal  1.427389e-002  9.998965e-001 -1.766448e-003
    outer loop
      vertex -1.028627e+001 -4.907683e+000  2.300000e+000
      vertex -1.031731e+001 -4.903707e+000  4.300000e+000
      vertex -9.750000e+000 -4.911806e+000  4.300000e+000
    endloop
  endfacet
  facet normal  7.686609e-003  9.999705e-001  0.000000e+000
    outer loop
      vertex -1.028627e+001 -4.907683e+000  2.300000e+000
      vertex -9.750000e+000 -4.911806e+000  4.300000e+000
      vertex -9.750000e+000 -4.911806e+000  2.800000e+000
    endloop
  endfacet
  facet normal  4.734498e-001  8.808199e-001 -1.200267e-003
    outer loop
      vertex -1.086652e+001 -4.761283e+000  4.300000e+000
      vertex -1.134915e+001 -4.504587e+000  2.300000e+000
      vertex -1.136627e+001 -4.492661e+000  4.300000e+000
    endloop
  endfacet
  facet normal  6.631224e-001  7.485101e-001  1.212068e-003
    outer loop
      vertex -1.136627e+001 -4.492661e+000  4.300000e+000
      vertex -1.134915e+001 -4.504587e+000  2.300000e+000
      vertex -1.177771e+001 -4.124916e+000  2.300000e+000
    endloop
  endfacet
  facet normal  6.688564e-001  7.433910e-001 -9.087892e-004
    outer loop
      vertex -1.136627e+001 -4.492661e+000  4.300000e+000
      vertex -1.177771e+001 -4.124916e+000  2.300000e+000
      vertex -1.178805e+001 -4.113171e+000  4.300000e+000
    endloop
  endfacet
  facet normal  8.229835e-001  5.680645e-001  9.174515e-004
    outer loop
      vertex -1.178805e+001 -4.113171e+000  4.300000e+000
      vertex -1.177771e+001 -4.124916e+000  2.300000e+000
      vertex -1.210296e+001 -3.653718e+000  2.300000e+000
    endloop
  endfacet
  facet normal  8.260899e-001  5.635381e-001 -6.114952e-004
    outer loop
      vertex -1.178805e+001 -4.113171e+000  4.300000e+000
      vertex -1.210296e+001 -3.653718e+000  2.300000e+000
      vertex -1.210779e+001 -3.644471e+000  4.300000e+000
    endloop
  endfacet
  facet normal  9.350162e-001  3.546047e-001  6.174110e-004
    outer loop
      vertex -1.210779e+001 -3.644471e+000  4.300000e+000
      vertex -1.210296e+001 -3.653718e+000  2.300000e+000
      vertex -1.230599e+001 -3.118375e+000  2.300000e+000
    endloop
  endfacet
  facet normal  9.361793e-001  3.515226e-001 -3.086007e-004
    outer loop
      vertex -1.210779e+001 -3.644471e+000  4.300000e+000
      vertex -1.230599e+001 -3.118375e+000  2.300000e+000
      vertex -1.230723e+001 -3.113309e+000  4.300000e+000
    endloop
  endfacet
  facet normal  9.927087e-001  1.205374e-001  3.115154e-004
    outer loop
      vertex -1.230723e+001 -3.113309e+000  4.300000e+000
      vertex -1.230599e+001 -3.118375e+000  2.300000e+000
      vertex -1.237500e+001 -2.550000e+000  2.300000e+000
    endloop
  endfacet
  facet normal  9.928406e-001  1.194472e-001  -0.000000e+000
    outer loop
      vertex -1.230723e+001 -3.113309e+000  4.300000e+000
      vertex -1.237500e+001 -2.550000e+000  2.300000e+000
      vertex -1.237500e+001 -2.550000e+000  4.300000e+000
    endloop
  endfacet
  facet normal  8.229839e-001 -5.680645e-001 -6.398859e-004
    outer loop
      vertex -1.177771e+001 -9.750837e-001  2.300000e+000
      vertex -1.210779e+001 -1.455529e+000  4.300000e+000
      vertex -1.210296e+001 -1.446283e+000  2.300000e+000
    endloop
  endfacet
  facet normal  9.361793e-001 -3.515225e-001  6.344898e-004
    outer loop
      vertex -1.210296e+001 -1.446283e+000  2.300000e+000
      vertex -1.210779e+001 -1.455529e+000  4.300000e+000
      vertex -1.230723e+001 -1.986691e+000  4.300000e+000
    endloop
  endfacet
  facet normal  9.350162e-001 -3.546048e-001 -3.171504e-004
    outer loop
      vertex -1.210296e+001 -1.446283e+000  2.300000e+000
      vertex -1.230723e+001 -1.986691e+000  4.300000e+000
      vertex -1.230599e+001 -1.981625e+000  2.300000e+000
    endloop
  endfacet
  facet normal  9.928405e-001 -1.194473e-001  3.143510e-004
    outer loop
      vertex -1.230599e+001 -1.981625e+000  2.300000e+000
      vertex -1.230723e+001 -1.986691e+000  4.300000e+000
      vertex -1.237500e+001 -2.550000e+000  4.300000e+000
    endloop
  endfacet
  facet normal  9.927087e-001 -1.205374e-001  0.000000e+000
    outer loop
      vertex -1.230599e+001 -1.981625e+000  2.300000e+000
      vertex -1.237500e+001 -2.550000e+000  4.300000e+000
      vertex -1.237500e+001 -2.550000e+000  2.300000e+000
    endloop
  endfacet
  facet normal  8.260896e-001 -5.635380e-001  9.600377e-004
    outer loop
      vertex -1.210779e+001 -1.455529e+000  4.300000e+000
      vertex -1.177771e+001 -9.750837e-001  2.300000e+000
      vertex -1.178805e+001 -9.868293e-001  4.300000e+000
    endloop
  endfacet
  facet normal  6.631223e-001 -7.485104e-001 -9.685574e-004
    outer loop
      vertex -1.178805e+001 -9.868293e-001  4.300000e+000
      vertex -1.177771e+001 -9.750837e-001  2.300000e+000
      vertex -1.134915e+001 -5.954133e-001  2.300000e+000
    endloop
  endfacet
  facet normal  6.688561e-001 -7.433907e-001  1.291668e-003
    outer loop
      vertex -1.178805e+001 -9.868293e-001  4.300000e+000
      vertex -1.134915e+001 -5.954133e-001  2.300000e+000
      vertex -1.136627e+001 -6.073395e-001  4.300000e+000
    endloop
  endfacet
  facet normal  4.647232e-001 -8.854550e-001 -1.302596e-003
    outer loop
      vertex -1.136627e+001 -6.073395e-001  4.300000e+000
      vertex -1.134915e+001 -5.954133e-001  2.300000e+000
      vertex -1.084219e+001 -3.293364e-001  2.300000e+000
    endloop
  endfacet
  facet normal  4.734493e-001 -8.808196e-001  1.628353e-003
    outer loop
      vertex -1.136627e+001 -6.073395e-001  4.300000e+000
      vertex -1.084219e+001 -3.293364e-001  2.300000e+000
      vertex -1.086652e+001 -3.387173e-001  4.300000e+000
    endloop
  endfacet
  facet normal  2.393153e-001 -9.709405e-001 -1.642720e-003
    outer loop
      vertex -1.086652e+001 -3.387173e-001  4.300000e+000
      vertex -1.084219e+001 -3.293364e-001  2.300000e+000
      vertex -1.028627e+001 -1.923164e-001  2.300000e+000
    endloop
  endfacet
  facet normal  2.510243e-001 -9.679788e-001  1.971108e-003
    outer loop
      vertex -1.086652e+001 -3.387173e-001  4.300000e+000
      vertex -1.028627e+001 -1.923164e-001  2.300000e+000
      vertex -1.031731e+001 -1.962929e-001  4.300000e+000
    endloop
  endfacet
  facet normal  9.403392e-003 -9.999540e-001 -1.842216e-003
    outer loop
      vertex -1.031731e+001 -1.962929e-001  4.300000e+000
      vertex -1.028627e+001 -1.923164e-001  2.300000e+000
      vertex -9.750000e+000 -1.881945e-001  2.800000e+000
    endloop
  endfacet
  facet normal  1.427349e-002 -9.998981e-001  0.000000e+000
    outer loop
      vertex -1.031731e+001 -1.962929e-001  4.300000e+000
      vertex -9.750000e+000 -1.881945e-001  2.800000e+000
      vertex -9.750000e+000 -1.881945e-001  4.300000e+000
    endloop
  endfacet
  facet normal  0.000000e+000 -9.999660e-001  8.243489e-003
    outer loop
      vertex -1.028627e+001 -1.923164e-001  2.300000e+000
      vertex -9.713725e+000 -1.923164e-001  2.300000e+000
      vertex -9.750000e+000 -1.881945e-001  2.800000e+000
    endloop
  endfacet
  facet normal -2.393052e-001 -9.708993e-001 -9.357680e-003
    outer loop
      vertex -9.750000e+000 -1.881945e-001  2.800000e+000
      vertex -9.713725e+000 -1.923164e-001  2.300000e+000
      vertex -9.157813e+000 -3.293364e-001  2.300000e+000
    endloop
  endfacet
  facet normal -2.256038e-001 -9.741879e-001  7.798156e-003
    outer loop
      vertex -9.750000e+000 -1.881945e-001  2.800000e+000
      vertex -9.157813e+000 -3.293364e-001  2.300000e+000
      vertex -9.186328e+000 -3.187305e-001  2.800000e+000
    endloop
  endfacet
  facet normal -4.647097e-001 -8.854294e-001 -7.720713e-003
    outer loop
      vertex -9.186328e+000 -3.187305e-001  2.800000e+000
      vertex -9.157813e+000 -3.293364e-001  2.300000e+000
      vertex -8.650846e+000 -5.954133e-001  2.300000e+000
    endloop
  endfacet
  facet normal -4.544756e-001 -8.907378e-001  6.177075e-003
    outer loop
      vertex -9.186328e+000 -3.187305e-001  2.800000e+000
      vertex -8.650846e+000 -5.954133e-001  2.300000e+000
      vertex -8.670947e+000 -5.816901e-001  2.800000e+000
    endloop
  endfacet
  facet normal -6.631103e-001 -7.484968e-001 -6.114285e-003
    outer loop
      vertex -8.670947e+000 -5.816901e-001  2.800000e+000
      vertex -8.650846e+000 -5.954133e-001  2.300000e+000
      vertex -8.222287e+000 -9.750837e-001  2.300000e+000
    endloop
  endfacet
  facet normal -6.563770e-001 -7.544191e-001  4.587162e-003
    outer loop
      vertex -8.670947e+000 -5.816901e-001  2.800000e+000
      vertex -8.222287e+000 -9.750837e-001  2.300000e+000
      vertex -8.234444e+000 -9.614668e-001  2.800000e+000
    endloop
  endfacet
  facet normal -8.229751e-001 -5.680593e-001 -4.538605e-003
    outer loop
      vertex -8.234444e+000 -9.614668e-001  2.800000e+000
      vertex -8.222287e+000 -9.750837e-001  2.300000e+000
      vertex -7.897042e+000 -1.446283e+000  2.300000e+000
    endloop
  endfacet
  facet normal -8.193250e-001 -5.733213e-001  3.026688e-003
    outer loop
      vertex -8.234444e+000 -9.614668e-001  2.800000e+000
      vertex -7.897042e+000 -1.446283e+000  2.300000e+000
      vertex -7.902725e+000 -1.435521e+000  2.800000e+000
    endloop
  endfacet
  facet normal -9.350122e-001 -3.546032e-001 -2.995459e-003
    outer loop
      vertex -7.902725e+000 -1.435521e+000  2.800000e+000
      vertex -7.897042e+000 -1.446283e+000  2.300000e+000
      vertex -7.694013e+000 -1.981625e+000  2.300000e+000
    endloop
  endfacet
  facet normal -9.336457e-001 -3.581947e-001  1.497562e-003
    outer loop
      vertex -7.902725e+000 -1.435521e+000  2.800000e+000
      vertex -7.694013e+000 -1.981625e+000  2.300000e+000
      vertex -7.695477e+000 -1.975719e+000  2.800000e+000
    endloop
  endfacet
  facet normal -9.927078e-001 -1.205365e-001 -1.482628e-003
    outer loop
      vertex -7.695477e+000 -1.975719e+000  2.800000e+000
      vertex -7.694013e+000 -1.981625e+000  2.300000e+000
      vertex -7.625000e+000 -2.550000e+000  2.300000e+000
    endloop
  endfacet
  facet normal -9.925536e-001 -1.218084e-001  0.000000e+000
    outer loop
      vertex -7.695477e+000 -1.975719e+000  2.800000e+000
      vertex -7.625000e+000 -2.550000e+000  2.300000e+000
      vertex -7.625000e+000 -2.550000e+000  2.800000e+000
    endloop
  endfacet
  facet normal -8.229837e-001  5.680646e-001 -6.399208e-004
    outer loop
      vertex  1.177771e+001 -4.124916e+000  2.300000e+000
      vertex  1.210779e+001 -3.644471e+000  4.300000e+000
      vertex  1.210296e+001 -3.653718e+000  2.300000e+000
    endloop
  endfacet
  facet normal -9.361793e-001  3.515225e-001  6.344684e-004
    outer loop
      vertex  1.210296e+001 -3.653718e+000  2.300000e+000
      vertex  1.210779e+001 -3.644471e+000  4.300000e+000
      vertex  1.230723e+001 -3.113309e+000  4.300000e+000
    endloop
  endfacet
  facet normal -9.350162e-001  3.546047e-001 -3.171291e-004
    outer loop
      vertex  1.210296e+001 -3.653718e+000  2.300000e+000
      vertex  1.230723e+001 -3.113309e+000  4.300000e+000
      vertex  1.230599e+001 -3.118375e+000  2.300000e+000
    endloop
  endfacet
  facet normal -9.928406e-001  1.194472e-001  3.143583e-004
    outer loop
      vertex  1.230599e+001 -3.118375e+000  2.300000e+000
      vertex  1.230723e+001 -3.113309e+000  4.300000e+000
      vertex  1.237500e+001 -2.550000e+000  4.300000e+000
    endloop
  endfacet
  facet normal -9.927087e-001  1.205374e-001  0.000000e+000
    outer loop
      vertex  1.230599e+001 -3.118375e+000  2.300000e+000
      vertex  1.237500e+001 -2.550000e+000  4.300000e+000
      vertex  1.237500e+001 -2.550000e+000  2.300000e+000
    endloop
  endfacet
  facet normal -8.260896e-001  5.635380e-001  9.600885e-004
    outer loop
      vertex  1.210779e+001 -3.644471e+000  4.300000e+000
      vertex  1.177771e+001 -4.124916e+000  2.300000e+000
      vertex  1.178805e+001 -4.113171e+000  4.300000e+000
    endloop
  endfacet
  facet normal -6.631225e-001  7.485101e-001 -9.684879e-004
    outer loop
      vertex  1.178805e+001 -4.113171e+000  4.300000e+000
      vertex  1.177771e+001 -4.124916e+000  2.300000e+000
      vertex  1.134915e+001 -4.504587e+000  2.300000e+000
    endloop
  endfacet
  facet normal -6.688562e-001  7.433907e-001  1.291669e-003
    outer loop
      vertex  1.178805e+001 -4.113171e+000  4.300000e+000
      vertex  1.134915e+001 -4.504587e+000  2.300000e+000
      vertex  1.136627e+001 -4.492661e+000  4.300000e+000
    endloop
  endfacet
  facet normal -4.647234e-001  8.854550e-001 -1.302593e-003
    outer loop
      vertex  1.136627e+001 -4.492661e+000  4.300000e+000
      vertex  1.134915e+001 -4.504587e+000  2.300000e+000
      vertex  1.084219e+001 -4.770664e+000  2.300000e+000
    endloop
  endfacet
  facet normal -4.734496e-001  8.808195e-001  1.628369e-003
    outer loop
      vertex  1.136627e+001 -4.492661e+000  4.300000e+000
      vertex  1.084219e+001 -4.770664e+000  2.300000e+000
      vertex  1.086652e+001 -4.761283e+000  4.300000e+000
    endloop
  endfacet
  facet normal -2.393147e-001  9.709405e-001 -1.642714e-003
    outer loop
      vertex  1.086652e+001 -4.761283e+000  4.300000e+000
      vertex  1.084219e+001 -4.770664e+000  2.300000e+000
      vertex  1.028627e+001 -4.907683e+000  2.300000e+000
    endloop
  endfacet
  facet normal -2.510239e-001  9.679789e-001  1.971166e-003
    outer loop
      vertex  1.086652e+001 -4.761283e+000  4.300000e+000
      vertex  1.028627e+001 -4.907683e+000  2.300000e+000
      vertex  1.031731e+001 -4.903707e+000  4.300000e+000
    endloop
  endfacet
  facet normal -9.404015e-003  9.999540e-001 -1.842139e-003
    outer loop
      vertex  1.031731e+001 -4.903707e+000  4.300000e+000
      vertex  1.028627e+001 -4.907683e+000  2.300000e+000
      vertex  9.750000e+000 -4.911806e+000  2.800000e+000
    endloop
  endfacet
  facet normal -1.427391e-002  9.998981e-001  0.000000e+000
    outer loop
      vertex  1.031731e+001 -4.903707e+000  4.300000e+000
      vertex  9.750000e+000 -4.911806e+000  2.800000e+000
      vertex  9.750000e+000 -4.911806e+000  4.300000e+000
    endloop
  endfacet
  facet normal  -0.000000e+000  9.999660e-001  8.244234e-003
    outer loop
      vertex  1.028627e+001 -4.907683e+000  2.300000e+000
      vertex  9.713725e+000 -4.907683e+000  2.300000e+000
      vertex  9.750000e+000 -4.911806e+000  2.800000e+000
    endloop
  endfacet
  facet normal  2.393046e-001  9.708994e-001 -9.356909e-003
    outer loop
      vertex  9.750000e+000 -4.911806e+000  2.800000e+000
      vertex  9.713725e+000 -4.907683e+000  2.300000e+000
      vertex  9.157813e+000 -4.770664e+000  2.300000e+000
    endloop
  endfacet
  facet normal  2.256040e-001  9.741879e-001  7.797974e-003
    outer loop
      vertex  9.750000e+000 -4.911806e+000  2.800000e+000
      vertex  9.157813e+000 -4.770664e+000  2.300000e+000
      vertex  9.186328e+000 -4.781270e+000  2.800000e+000
    endloop
  endfacet
  facet normal  4.647099e-001  8.854293e-001 -7.720885e-003
    outer loop
      vertex  9.186328e+000 -4.781270e+000  2.800000e+000
      vertex  9.157813e+000 -4.770664e+000  2.300000e+000
      vertex  8.650846e+000 -4.504587e+000  2.300000e+000
    endloop
  endfacet
  facet normal  4.544754e-001  8.907378e-001  6.177402e-003
    outer loop
      vertex  9.186328e+000 -4.781270e+000  2.800000e+000
      vertex  8.650846e+000 -4.504587e+000  2.300000e+000
      vertex  8.670947e+000 -4.518310e+000  2.800000e+000
    endloop
  endfacet
  facet normal  6.631105e-001  7.484966e-001 -6.114033e-003
    outer loop
      vertex  8.670947e+000 -4.518310e+000  2.800000e+000
      vertex  8.650846e+000 -4.504587e+000  2.300000e+000
      vertex  8.222287e+000 -4.124916e+000  2.300000e+000
    endloop
  endfacet
  facet normal  6.563773e-001  7.544189e-001  4.587421e-003
    outer loop
      vertex  8.670947e+000 -4.518310e+000  2.800000e+000
      vertex  8.222287e+000 -4.124916e+000  2.300000e+000
      vertex  8.234444e+000 -4.138533e+000  2.800000e+000
    endloop
  endfacet
  facet normal  8.229749e-001  5.680594e-001 -4.538391e-003
    outer loop
      vertex  8.234444e+000 -4.138533e+000  2.800000e+000
      vertex  8.222287e+000 -4.124916e+000  2.300000e+000
      vertex  7.897042e+000 -3.653718e+000  2.300000e+000
    endloop
  endfacet
  facet normal  8.193250e-001  5.733213e-001  3.026689e-003
    outer loop
      vertex  8.234444e+000 -4.138533e+000  2.800000e+000
      vertex  7.897042e+000 -3.653718e+000  2.300000e+000
      vertex  7.902725e+000 -3.664479e+000  2.800000e+000
    endloop
  endfacet
  facet normal  9.350120e-001  3.546031e-001 -2.995461e-003
    outer loop
      vertex  7.902725e+000 -3.664479e+000  2.800000e+000
      vertex  7.897042e+000 -3.653718e+000  2.300000e+000
      vertex  7.694013e+000 -3.118375e+000  2.300000e+000
    endloop
  endfacet
  facet normal  9.336458e-001  3.581946e-001  1.497561e-003
    outer loop
      vertex  7.902725e+000 -3.664479e+000  2.800000e+000
      vertex  7.694013e+000 -3.118375e+000  2.300000e+000
      vertex  7.695477e+000 -3.124281e+000  2.800000e+000
    endloop
  endfacet
  facet normal  9.927078e-001  1.205365e-001 -1.482628e-003
    outer loop
      vertex  7.695477e+000 -3.124281e+000  2.800000e+000
      vertex  7.694013e+000 -3.118375e+000  2.300000e+000
      vertex  7.625000e+000 -2.550000e+000  2.300000e+000
    endloop
  endfacet
  facet normal  9.925536e-001  1.218084e-001  -0.000000e+000
    outer loop
      vertex  7.695477e+000 -3.124281e+000  2.800000e+000
      vertex  7.625000e+000 -2.550000e+000  2.300000e+000
      vertex  7.625000e+000 -2.550000e+000  2.800000e+000
    endloop
  endfacet
  facet normal  0.000000e+000 -9.999660e-001  8.243489e-003
    outer loop
      vertex  1.028627e+001 -1.923164e-001  2.300000e+000
      vertex  9.750000e+000 -1.881945e-001  2.800000e+000
      vertex  9.713725e+000 -1.923164e-001  2.300000e+000
    endloop
  endfacet
  facet normal  2.256029e-001 -9.741837e-001 -8.336500e-003
    outer loop
      vertex  9.713725e+000 -1.923164e-001  2.300000e+000
      vertex  9.750000e+000 -1.881945e-001  2.800000e+000
      vertex  9.186328e+000 -3.187305e-001  2.800000e+000
    endloop
  endfacet
  facet normal  2.393099e-001 -9.709184e-001  6.947154e-003
    outer loop
      vertex  9.713725e+000 -1.923164e-001  2.300000e+000
      vertex  9.186328e+000 -3.187305e-001  2.800000e+000
      vertex  9.157813e+000 -3.293364e-001  2.300000e+000
    endloop
  endfacet
  facet normal  4.544731e-001 -8.907328e-001 -7.024427e-003
    outer loop
      vertex  9.157813e+000 -3.293364e-001  2.300000e+000
      vertex  9.186328e+000 -3.187305e-001  2.800000e+000
      vertex  8.670947e+000 -5.816901e-001  2.800000e+000
    endloop
  endfacet
  facet normal  4.647163e-001 -8.854419e-001  5.620037e-003
    outer loop
      vertex  9.157813e+000 -3.293364e-001  2.300000e+000
      vertex  8.670947e+000 -5.816901e-001  2.800000e+000
      vertex  8.650846e+000 -5.954133e-001  2.300000e+000
    endloop
  endfacet
  facet normal  6.563733e-001 -7.544148e-001 -5.681023e-003
    outer loop
      vertex  8.650846e+000 -5.954133e-001  2.300000e+000
      vertex  8.670947e+000 -5.816901e-001  2.800000e+000
      vertex  8.234444e+000 -9.614668e-001  2.800000e+000
    endloop
  endfacet
  facet normal  6.631166e-001 -7.485040e-001  4.262211e-003
    outer loop
      vertex  8.650846e+000 -5.954133e-001  2.300000e+000
      vertex  8.234444e+000 -9.614668e-001  2.800000e+000
      vertex  8.222287e+000 -9.750837e-001  2.300000e+000
    endloop
  endfacet
  facet normal  8.193212e-001 -5.733186e-001 -4.306535e-003
    outer loop
      vertex  8.222287e+000 -9.750837e-001  2.300000e+000
      vertex  8.234444e+000 -9.614668e-001  2.800000e+000
      vertex  7.902725e+000 -1.435521e+000  2.800000e+000
    endloop
  endfacet
  facet normal  8.229802e-001 -5.680628e-001  2.871970e-003
    outer loop
      vertex  8.222287e+000 -9.750837e-001  2.300000e+000
      vertex  7.902725e+000 -1.435521e+000  2.800000e+000
      vertex  7.897042e+000 -1.446283e+000  2.300000e+000
    endloop
  endfacet
  facet normal  9.336429e-001 -3.581936e-001 -2.902623e-003
    outer loop
      vertex  7.897042e+000 -1.446283e+000  2.300000e+000
      vertex  7.902725e+000 -1.435521e+000  2.800000e+000
      vertex  7.695477e+000 -1.975719e+000  2.800000e+000
    endloop
  endfacet
  facet normal  9.350154e-001 -3.546044e-001  1.451143e-003
    outer loop
      vertex  7.897042e+000 -1.446283e+000  2.300000e+000
      vertex  7.695477e+000 -1.975719e+000  2.800000e+000
      vertex  7.694013e+000 -1.981625e+000  2.300000e+000
    endloop
  endfacet
  facet normal  9.925526e-001 -1.218083e-001 -1.467151e-003
    outer loop
      vertex  7.694013e+000 -1.981625e+000  2.300000e+000
      vertex  7.695477e+000 -1.975719e+000  2.800000e+000
      vertex  7.625000e+000 -2.550000e+000  2.800000e+000
    endloop
  endfacet
  facet normal  9.927089e-001 -1.205366e-001  0.000000e+000
    outer loop
      vertex  7.694013e+000 -1.981625e+000  2.300000e+000
      vertex  7.625000e+000 -2.550000e+000  2.800000e+000
      vertex  7.625000e+000 -2.550000e+000  2.300000e+000
    endloop
  endfacet
  facet normal -4.647231e-001 -8.854548e-001  1.500452e-003
    outer loop
      vertex  1.134915e+001 -5.954133e-001  2.300000e+000
      vertex  1.086652e+001 -3.387173e-001  4.300000e+000
      vertex  1.084219e+001 -3.293364e-001  2.300000e+000
    endloop
  endfacet
  facet normal -2.510245e-001 -9.679796e-001 -1.486383e-003
    outer loop
      vertex  1.084219e+001 -3.293364e-001  2.300000e+000
      vertex  1.086652e+001 -3.387173e-001  4.300000e+000
      vertex  1.031731e+001 -1.962929e-001  4.300000e+000
    endloop
  endfacet
  facet normal -2.393153e-001 -9.709403e-001  1.783506e-003
    outer loop
      vertex  1.084219e+001 -3.293364e-001  2.300000e+000
      vertex  1.031731e+001 -1.962929e-001  4.300000e+000
      vertex  1.028627e+001 -1.923164e-001  2.300000e+000
    endloop
  endfacet
  facet normal -1.427347e-002 -9.998965e-001 -1.766522e-003
    outer loop
      vertex  1.028627e+001 -1.923164e-001  2.300000e+000
      vertex  1.031731e+001 -1.962929e-001  4.300000e+000
      vertex  9.750000e+000 -1.881945e-001  4.300000e+000
    endloop
  endfacet
  facet normal -7.685914e-003 -9.999705e-001  -0.000000e+000
    outer loop
      vertex  1.028627e+001 -1.923164e-001  2.300000e+000
      vertex  9.750000e+000 -1.881945e-001  4.300000e+000
      vertex  9.750000e+000 -1.881945e-001  2.800000e+000
    endloop
  endfacet
  facet normal -4.734496e-001 -8.808201e-001 -1.200270e-003
    outer loop
      vertex  1.086652e+001 -3.387173e-001  4.300000e+000
      vertex  1.134915e+001 -5.954133e-001  2.300000e+000
      vertex  1.136627e+001 -6.073395e-001  4.300000e+000
    endloop
  endfacet
  facet normal -6.631221e-001 -7.485102e-001  1.212065e-003
    outer loop
      vertex  1.136627e+001 -6.073395e-001  4.300000e+000
      vertex  1.134915e+001 -5.954133e-001  2.300000e+000
      vertex  1.177771e+001 -9.750837e-001  2.300000e+000
    endloop
  endfacet
  facet normal -6.688563e-001 -7.433911e-001 -9.088562e-004
    outer loop
      vertex  1.136627e+001 -6.073395e-001  4.300000e+000
      vertex  1.177771e+001 -9.750837e-001  2.300000e+000
      vertex  1.178805e+001 -9.868293e-001  4.300000e+000
    endloop
  endfacet
  facet normal -8.229837e-001 -5.680643e-001  9.174024e-004
    outer loop
      vertex  1.178805e+001 -9.868293e-001  4.300000e+000
      vertex  1.177771e+001 -9.750837e-001  2.300000e+000
      vertex  1.210296e+001 -1.446283e+000  2.300000e+000
    endloop
  endfacet
  facet normal -8.260899e-001 -5.635382e-001 -6.114619e-004
    outer loop
      vertex  1.178805e+001 -9.868293e-001  4.300000e+000
      vertex  1.210296e+001 -1.446283e+000  2.300000e+000
      vertex  1.210779e+001 -1.455529e+000  4.300000e+000
    endloop
  endfacet
  facet normal -9.350162e-001 -3.546048e-001  6.174318e-004
    outer loop
      vertex  1.210779e+001 -1.455529e+000  4.300000e+000
      vertex  1.210296e+001 -1.446283e+000  2.300000e+000
      vertex  1.230599e+001 -1.981625e+000  2.300000e+000
    endloop
  endfacet
  facet normal -9.361793e-001 -3.515225e-001 -3.086214e-004
    outer loop
      vertex  1.210779e+001 -1.455529e+000  4.300000e+000
      vertex  1.230599e+001 -1.981625e+000  2.300000e+000
      vertex  1.230723e+001 -1.986691e+000  4.300000e+000
    endloop
  endfacet
  facet normal -9.927087e-001 -1.205374e-001  3.115082e-004
    outer loop
      vertex  1.230723e+001 -1.986691e+000  4.300000e+000
      vertex  1.230599e+001 -1.981625e+000  2.300000e+000
      vertex  1.237500e+001 -2.550000e+000  2.300000e+000
    endloop
  endfacet
  facet normal -9.928406e-001 -1.194473e-001  0.000000e+000
    outer loop
      vertex  1.230723e+001 -1.986691e+000  4.300000e+000
      vertex  1.237500e+001 -2.550000e+000  2.300000e+000
      vertex  1.237500e+001 -2.550000e+000  4.300000e+000
    endloop
  endfacet
  facet normal  -0.000000e+000  0.000000e+000  1.000000e+000
    outer loop
      vertex -9.713725e+000 -1.923164e-001  2.300000e+000
      vertex -1.028627e+001 -1.923164e-001  2.300000e+000
      vertex -9.157813e+000 -3.293364e-001  2.300000e+000
    endloop
  endfacet
  facet normal  0.000000e+000  0.000000e+000  9.999999e-001
    outer loop
      vertex -9.157813e+000 -3.293364e-001  2.300000e+000
      vertex -1.028627e+001 -1.923164e-001  2.300000e+000
      vertex -1.084219e+001 -3.293364e-001  2.300000e+000
    endloop
  endfacet
  facet normal  -0.000000e+000  0.000000e+000  1.000000e+000
    outer loop
      vertex -9.157813e+000 -3.293364e-001  2.300000e+000
      vertex -1.084219e+001 -3.293364e-001  2.300000e+000
      vertex -8.650846e+000 -5.954133e-001  2.300000e+000
    endloop
  endfacet
  facet normal  0.000000e+000  0.000000e+000  1.000000e+000
    outer loop
      vertex -8.650846e+000 -5.954133e-001  2.300000e+000
      vertex -1.084219e+001 -3.293364e-001  2.300000e+000
      vertex -1.134915e+001 -5.954133e-001  2.300000e+000
    endloop
  endfacet
  facet normal  -0.000000e+000  0.000000e+000  1.000000e+000
    outer loop
      vertex -8.650846e+000 -5.954133e-001  2.300000e+000
      vertex -1.134915e+001 -5.954133e-001  2.300000e+000
      vertex -8.222287e+000 -9.750837e-001  2.300000e+000
    endloop
  endfacet
  facet normal  0.000000e+000  0.000000e+000  1.000000e+000
    outer loop
      vertex -8.222287e+000 -9.750837e-001  2.300000e+000
      vertex -1.134915e+001 -5.954133e-001  2.300000e+000
      vertex -1.177771e+001 -9.750837e-001  2.300000e+000
    endloop
  endfacet
  facet normal  -0.000000e+000  0.000000e+000  9.999999e-001
    outer loop
      vertex -8.222287e+000 -9.750837e-001  2.300000e+000
      vertex -1.177771e+001 -9.750837e-001  2.300000e+000
      vertex -7.897042e+000 -1.446283e+000  2.300000e+000
    endloop
  endfacet
  facet normal  0.000000e+000  0.000000e+000  9.999999e-001
    outer loop
      vertex -7.897042e+000 -1.446283e+000  2.300000e+000
      vertex -1.177771e+001 -9.750837e-001  2.300000e+000
      vertex -1.210296e+001 -1.446283e+000  2.300000e+000
    endloop
  endfacet
  facet normal  -0.000000e+000  0.000000e+000  1.000000e+000
    outer loop
      vertex -7.897042e+000 -1.446283e+000  2.300000e+000
      vertex -1.210296e+001 -1.446283e+000  2.300000e+000
      vertex -7.694013e+000 -1.981625e+000  2.300000e+000
    endloop
  endfacet
  facet normal  0.000000e+000  0.000000e+000  1.000000e+000
    outer loop
      vertex -7.694013e+000 -1.981625e+000  2.300000e+000
      vertex -1.210296e+001 -1.446283e+000  2.300000e+000
      vertex -1.230599e+001 -1.981625e+000  2.300000e+000
    endloop
  endfacet
  facet normal  -0.000000e+000  0.000000e+000  1.000000e+000
    outer loop
      vertex -7.694013e+000 -1.981625e+000  2.300000e+000
      vertex -1.230599e+001 -1.981625e+000  2.300000e+000
      vertex -7.625000e+000 -2.550000e+000  2.300000e+000
    endloop
  endfacet
  facet normal  0.000000e+000  0.000000e+000  1.000000e+000
    outer loop
      vertex -7.625000e+000 -2.550000e+000  2.300000e+000
      vertex -1.230599e+001 -1.981625e+000  2.300000e+000
      vertex -1.237500e+001 -2.550000e+000  2.300000e+000
    endloop
  endfacet
  facet normal  -0.000000e+000  0.000000e+000  1.000000e+000
    outer loop
      vertex -7.625000e+000 -2.550000e+000  2.300000e+000
      vertex -1.237500e+001 -2.550000e+000  2.300000e+000
      vertex -7.694013e+000 -3.118375e+000  2.300000e+000
    endloop
  endfacet
  facet normal  0.000000e+000  0.000000e+000  1.000000e+000
    outer loop
      vertex -7.694013e+000 -3.118375e+000  2.300000e+000
      vertex -1.237500e+001 -2.550000e+000  2.300000e+000
      vertex -1.230599e+001 -3.118375e+000  2.300000e+000
    endloop
  endfacet
  facet normal  -0.000000e+000  0.000000e+000  1.000000e+000
    outer loop
      vertex -7.694013e+000 -3.118375e+000  2.300000e+000
      vertex -1.230599e+001 -3.118375e+000  2.300000e+000
      vertex -7.897042e+000 -3.653718e+000  2.300000e+000
    endloop
  endfacet
  facet normal  0.000000e+000  0.000000e+000  9.999999e-001
    outer loop
      vertex -7.897042e+000 -3.653718e+000  2.300000e+000
      vertex -1.230599e+001 -3.118375e+000  2.300000e+000
      vertex -1.210296e+001 -3.653718e+000  2.300000e+000
    endloop
  endfacet
  facet normal  -0.000000e+000  0.000000e+000  9.999999e-001
    outer loop
      vertex -7.897042e+000 -3.653718e+000  2.300000e+000
      vertex -1.210296e+001 -3.653718e+000  2.300000e+000
      vertex -8.222287e+000 -4.124916e+000  2.300000e+000
    endloop
  endfacet
  facet normal  0.000000e+000  0.000000e+000  9.999999e-001
    outer loop
      vertex -8.222287e+000 -4.124916e+000  2.300000e+000
      vertex -1.210296e+001 -3.653718e+000  2.300000e+000
      vertex -1.177771e+001 -4.124916e+000  2.300000e+000
    endloop
  endfacet
  facet normal  -0.000000e+000  0.000000e+000  1.000000e+000
    outer loop
      vertex -8.222287e+000 -4.124916e+000  2.300000e+000
      vertex -1.177771e+001 -4.124916e+000  2.300000e+000
      vertex -8.650846e+000 -4.504587e+000  2.300000e+000
    endloop
  endfacet
  facet normal  0.000000e+000  0.000000e+000  1.000000e+000
    outer loop
      vertex -8.650846e+000 -4.504587e+000  2.300000e+000
      vertex -1.177771e+001 -4.124916e+000  2.300000e+000
      vertex -1.134915e+001 -4.504587e+000  2.300000e+000
    endloop
  endfacet
  facet normal  -0.000000e+000  0.000000e+000  1.000000e+000
    outer loop
      vertex -8.650846e+000 -4.504587e+000  2.300000e+000
      vertex -1.134915e+001 -4.504587e+000  2.300000e+000
      vertex -9.157813e+000 -4.770664e+000  2.300000e+000
    endloop
  endfacet
  facet normal  0.000000e+000  0.000000e+000  1.000000e+000
    outer loop
      vertex -9.157813e+000 -4.770664e+000  2.300000e+000
      vertex -1.134915e+001 -4.504587e+000  2.300000e+000
      vertex -1.084219e+001 -4.770664e+000  2.300000e+000
    endloop
  endfacet
  facet normal  -0.000000e+000  0.000000e+000  1.000000e+000
    outer loop
      vertex -9.157813e+000 -4.770664e+000  2.300000e+000
      vertex -1.084219e+001 -4.770664e+000  2.300000e+000
      vertex -9.713725e+000 -4.907683e+000  2.300000e+000
    endloop
  endfacet
  facet normal  0.000000e+000  0.000000e+000  1.000000e+000
    outer loop
      vertex -9.713725e+000 -4.907683e+000  2.300000e+000
      vertex -1.084219e+001 -4.770664e+000  2.300000e+000
      vertex -1.028627e+001 -4.907683e+000  2.300000e+000
    endloop
  endfacet
  facet normal  -0.000000e+000  0.000000e+000  1.000000e+000
    outer loop
      vertex  1.028627e+001 -1.923164e-001  2.300000e+000
      vertex  9.713725e+000 -1.923164e-001  2.300000e+000
      vertex  1.084219e+001 -3.293364e-001  2.300000e+000
    endloop
  endfacet
  facet normal  0.000000e+000  0.000000e+000  9.999999e-001
    outer loop
      vertex  1.084219e+001 -3.293364e-001  2.300000e+000
      vertex  9.713725e+000 -1.923164e-001  2.300000e+000
      vertex  9.157813e+000 -3.293364e-001  2.300000e+000
    endloop
  endfacet
  facet normal  -0.000000e+000  0.000000e+000  1.000000e+000
    outer loop
      vertex  1.084219e+001 -3.293364e-001  2.300000e+000
      vertex  9.157813e+000 -3.293364e-001  2.300000e+000
      vertex  1.134915e+001 -5.954133e-001  2.300000e+000
    endloop
  endfacet
  facet normal  0.000000e+000  0.000000e+000  1.000000e+000
    outer loop
      vertex  1.134915e+001 -5.954133e-001  2.300000e+000
      vertex  9.157813e+000 -3.293364e-001  2.300000e+000
      vertex  8.650846e+000 -5.954133e-001  2.300000e+000
    endloop
  endfacet
  facet normal  -0.000000e+000  0.000000e+000  1.000000e+000
    outer loop
      vertex  1.134915e+001 -5.954133e-001  2.300000e+000
      vertex  8.650846e+000 -5.954133e-001  2.300000e+000
      vertex  1.177771e+001 -9.750837e-001  2.300000e+000
    endloop
  endfacet
  facet normal  0.000000e+000  0.000000e+000  1.000000e+000
    outer loop
      vertex  1.177771e+001 -9.750837e-001  2.300000e+000
      vertex  8.650846e+000 -5.954133e-001  2.300000e+000
      vertex  8.222287e+000 -9.750837e-001  2.300000e+000
    endloop
  endfacet
  facet normal  -0.000000e+000  0.000000e+000  9.999999e-001
    outer loop
      vertex  1.177771e+001 -9.750837e-001  2.300000e+000
      vertex  8.222287e+000 -9.750837e-001  2.300000e+000
      vertex  1.210296e+001 -1.446283e+000  2.300000e+000
    endloop
  endfacet
  facet normal  0.000000e+000  0.000000e+000  9.999999e-001
    outer loop
      vertex  1.210296e+001 -1.446283e+000  2.300000e+000
      vertex  8.222287e+000 -9.750837e-001  2.300000e+000
      vertex  7.897042e+000 -1.446283e+000  2.300000e+000
    endloop
  endfacet
  facet normal  -0.000000e+000  0.000000e+000  1.000000e+000
    outer loop
      vertex  1.210296e+001 -1.446283e+000  2.300000e+000
      vertex  7.897042e+000 -1.446283e+000  2.300000e+000
      vertex  1.230599e+001 -1.981625e+000  2.300000e+000
    endloop
  endfacet
  facet normal  0.000000e+000  0.000000e+000  1.000000e+000
    outer loop
      vertex  1.230599e+001 -1.981625e+000  2.300000e+000
      vertex  7.897042e+000 -1.446283e+000  2.300000e+000
      vertex  7.694013e+000 -1.981625e+000  2.300000e+000
    endloop
  endfacet
  facet normal  -0.000000e+000  0.000000e+000  1.000000e+000
    outer loop
      vertex  1.230599e+001 -1.981625e+000  2.300000e+000
      vertex  7.694013e+000 -1.981625e+000  2.300000e+000
      vertex  1.237500e+001 -2.550000e+000  2.300000e+000
    endloop
  endfacet
  facet normal  0.000000e+000  0.000000e+000  1.000000e+000
    outer loop
      vertex  1.237500e+001 -2.550000e+000  2.300000e+000
      vertex  7.694013e+000 -1.981625e+000  2.300000e+000
      vertex  7.625000e+000 -2.550000e+000  2.300000e+000
    endloop
  endfacet
  facet normal  -0.000000e+000  0.000000e+000  1.000000e+000
    outer loop
      vertex  1.237500e+001 -2.550000e+000  2.300000e+000
      vertex  7.625000e+000 -2.550000e+000  2.300000e+000
      vertex  1.230599e+001 -3.118375e+000  2.300000e+000
    endloop
  endfacet
  facet normal  0.000000e+000  0.000000e+000  1.000000e+000
    outer loop
      vertex  1.230599e+001 -3.118375e+000  2.300000e+000
      vertex  7.625000e+000 -2.550000e+000  2.300000e+000
      vertex  7.694013e+000 -3.118375e+000  2.300000e+000
    endloop
  endfacet
  facet normal  -0.000000e+000  0.000000e+000  1.000000e+000
    outer loop
      vertex  1.230599e+001 -3.118375e+000  2.300000e+000
      vertex  7.694013e+000 -3.118375e+000  2.300000e+000
      vertex  1.210296e+001 -3.653718e+000  2.300000e+000
    endloop
  endfacet
  facet normal  0.000000e+000  0.000000e+000  9.999999e-001
    outer loop
      vertex  1.210296e+001 -3.653718e+000  2.300000e+000
      vertex  7.694013e+000 -3.118375e+000  2.300000e+000
      vertex  7.897042e+000 -3.653718e+000  2.300000e+000
    endloop
  endfacet
  facet normal  -0.000000e+000  0.000000e+000  9.999999e-001
    outer loop
      vertex  1.210296e+001 -3.653718e+000  2.300000e+000
      vertex  7.897042e+000 -3.653718e+000  2.300000e+000
      vertex  1.177771e+001 -4.124916e+000  2.300000e+000
    endloop
  endfacet
  facet normal  0.000000e+000  0.000000e+000  9.999999e-001
    outer loop
      vertex  1.177771e+001 -4.124916e+000  2.300000e+000
      vertex  7.897042e+000 -3.653718e+000  2.300000e+000
      vertex  8.222287e+000 -4.124916e+000  2.300000e+000
    endloop
  endfacet
  facet normal  -0.000000e+000  0.000000e+000  1.000000e+000
    outer loop
      vertex  1.177771e+001 -4.124916e+000  2.300000e+000
      vertex  8.222287e+000 -4.124916e+000  2.300000e+000
      vertex  1.134915e+001 -4.504587e+000  2.300000e+000
    endloop
  endfacet
  facet normal  0.000000e+000  0.000000e+000  1.000000e+000
    outer loop
      vertex  1.134915e+001 -4.504587e+000  2.300000e+000
      vertex  8.222287e+000 -4.124916e+000  2.300000e+000
      vertex  8.650846e+000 -4.504587e+000  2.300000e+000
    endloop
  endfacet
  facet normal  -0.000000e+000  0.000000e+000  1.000000e+000
    outer loop
      vertex  1.134915e+001 -4.504587e+000  2.300000e+000
      vertex  8.650846e+000 -4.504587e+000  2.300000e+000
      vertex  1.084219e+001 -4.770664e+000  2.300000e+000
    endloop
  endfacet
  facet normal  0.000000e+000  0.000000e+000  1.000000e+000
    outer loop
      vertex  1.084219e+001 -4.770664e+000  2.300000e+000
      vertex  8.650846e+000 -4.504587e+000  2.300000e+000
      vertex  9.157813e+000 -4.770664e+000  2.300000e+000
    endloop
  endfacet
  facet normal  -0.000000e+000  0.000000e+000  1.000000e+000
    outer loop
      vertex  1.084219e+001 -4.770664e+000  2.300000e+000
      vertex  9.157813e+000 -4.770664e+000  2.300000e+000
      vertex  1.028627e+001 -4.907683e+000  2.300000e+000
    endloop
  endfacet
  facet normal  0.000000e+000  0.000000e+000  1.000000e+000
    outer loop
      vertex  1.028627e+001 -4.907683e+000  2.300000e+000
      vertex  9.157813e+000 -4.770664e+000  2.300000e+000
      vertex  9.713725e+000 -4.907683e+000  2.300000e+000
    endloop
  endfacet
  facet normal  0.000000e+000  0.000000e+000  1.000000e+000
    outer loop
      vertex  8.250000e+000 -1.375000e+001  2.800000e+000
      vertex -8.250000e+000 -1.550000e+001  2.800000e+000
      vertex  8.250000e+000 -1.550000e+001  2.800000e+000
    endloop
  endfacet
  facet normal  0.000000e+000  0.000000e+000  1.000000e+000
    outer loop
      vertex -8.250000e+000 -1.225000e+001  2.800000e+000
      vertex -8.250000e+000 -1.375000e+001  2.800000e+000
      vertex  8.250000e+000 -1.225000e+001  2.800000e+000
    endloop
  endfacet
  facet normal  0.000000e+000  0.000000e+000  1.000000e+000
    outer loop
      vertex  8.250000e+000 -1.225000e+001  2.800000e+000
      vertex -8.250000e+000 -1.375000e+001  2.800000e+000
      vertex -8.250000e+000 -1.550000e+001  2.800000e+000
    endloop
  endfacet
  facet normal  0.000000e+000  0.000000e+000  1.000000e+000
    outer loop
      vertex  8.250000e+000 -1.225000e+001  2.800000e+000
      vertex -8.250000e+000 -1.550000e+001  2.800000e+000
      vertex  8.250000e+000 -1.375000e+001  2.800000e+000
    endloop
  endfacet
  facet normal -1.000000e+000  -0.000000e+000  0.000000e+000
    outer loop
      vertex  8.250000e+000 -1.375000e+001  4.300000e+000
      vertex  8.250000e+000 -1.225000e+001  4.300000e+000
      vertex  8.250000e+000 -1.375000e+001  2.800000e+000
    endloop
  endfacet
  facet normal -1.000000e+000  0.000000e+000  0.000000e+000
    outer loop
      vertex  8.250000e+000 -1.375000e+001  2.800000e+000
      vertex  8.250000e+000 -1.225000e+001  4.300000e+000
      vertex  8.250000e+000 -1.225000e+001  2.800000e+000
    endloop
  endfacet
  facet normal  1.000000e+000  0.000000e+000  0.000000e+000
    outer loop
      vertex -8.250000e+000 -1.375000e+001  2.800000e+000
      vertex -8.250000e+000 -1.225000e+001  2.800000e+000
      vertex -8.250000e+000 -1.375000e+001  4.300000e+000
    endloop
  endfacet
  facet normal  1.000000e+000  -0.000000e+000  0.000000e+000
    outer loop
      vertex -8.250000e+000 -1.375000e+001  4.300000e+000
      vertex -8.250000e+000 -1.225000e+001  2.800000e+000
      vertex -8.250000e+000 -1.225000e+001  4.300000e+000
    endloop
  endfacet
  facet normal  0.000000e+000 -1.000000e+000  -0.000000e+000
    outer loop
      vertex -8.250000e+000 -1.375000e+001 -1.998401e-015
      vertex -8.250000e+000 -1.375000e+001  2.800000e+000
      vertex -1.425000e+001 -1.375000e+001  0.000000e+000
    endloop
  endfacet
  facet normal  0.000000e+000 -1.000000e+000  0.000000e+000
    outer loop
      vertex -1.425000e+001 -1.375000e+001  0.000000e+000
      vertex -8.250000e+000 -1.375000e+001  2.800000e+000
      vertex -8.250000e+000 -1.375000e+001  4.300000e+000
    endloop
  endfacet
  facet normal  -0.000000e+000 -1.000000e+000  0.000000e+000
    outer loop
      vertex -1.425000e+001 -1.375000e+001  0.000000e+000
      vertex -8.250000e+000 -1.375000e+001  4.300000e+000
      vertex -1.425000e+001 -1.375000e+001  4.300000e+000
    endloop
  endfacet
  facet normal  0.000000e+000 -1.000000e+000  0.000000e+000
    outer loop
      vertex  8.250000e+000 -1.375000e+001  4.300000e+000
      vertex  8.250000e+000 -1.375000e+001  2.800000e+000
      vertex  1.425000e+001 -1.375000e+001  4.300000e+000
    endloop
  endfacet
  facet normal  0.000000e+000 -1.000000e+000  0.000000e+000
    outer loop
      vertex  1.425000e+001 -1.375000e+001  4.300000e+000
      vertex  8.250000e+000 -1.375000e+001  2.800000e+000
      vertex  8.250000e+000 -1.375000e+001  0.000000e+000
    endloop
  endfacet
  facet normal  0.000000e+000 -1.000000e+000  0.000000e+000
    outer loop
      vertex  1.425000e+001 -1.375000e+001  4.300000e+000
      vertex  8.250000e+000 -1.375000e+001  0.000000e+000
      vertex  1.425000e+001 -1.375000e+001  0.000000e+000
    endloop
  endfacet
  facet normal  -0.000000e+000  1.000000e+000  0.000000e+000
    outer loop
      vertex  1.275000e+001 -1.225000e+001  1.600000e+000
      vertex  8.250000e+000 -1.225000e+001  4.300000e+000
      vertex  1.275000e+001 -1.225000e+001  4.300000e+000
    endloop
  endfacet
  facet normal  0.000000e+000  1.000000e+000  0.000000e+000
    outer loop
      vertex  8.250000e+000 -1.225000e+001  4.300000e+000
      vertex  1.275000e+001 -1.225000e+001  1.600000e+000
      vertex  8.250000e+000 -1.225000e+001  2.800000e+000
    endloop
  endfacet
  facet normal  0.000000e+000  1.000000e+000  0.000000e+000
    outer loop
      vertex  8.250000e+000 -1.225000e+001  2.800000e+000
      vertex  1.275000e+001 -1.225000e+001  1.600000e+000
      vertex -1.275000e+001 -1.225000e+001  1.600000e+000
    endloop
  endfacet
  facet normal  0.000000e+000  1.000000e+000  0.000000e+000
    outer loop
      vertex  8.250000e+000 -1.225000e+001  2.800000e+000
      vertex -1.275000e+001 -1.225000e+001  1.600000e+000
      vertex -8.250000e+000 -1.225000e+001  2.800000e+000
    endloop
  endfacet
  facet normal  0.000000e+000  1.000000e+000  0.000000e+000
    outer loop
      vertex -8.250000e+000 -1.225000e+001  2.800000e+000
      vertex -1.275000e+001 -1.225000e+001  1.600000e+000
      vertex -1.275000e+001 -1.225000e+001  4.300000e+000
    endloop
  endfacet
  facet normal  -0.000000e+000  1.000000e+000  0.000000e+000
    outer loop
      vertex -8.250000e+000 -1.225000e+001  2.800000e+000
      vertex -1.275000e+001 -1.225000e+001  4.300000e+000
      vertex -8.250000e+000 -1.225000e+001  4.300000e+000
    endloop
  endfacet
  facet normal  1.000000e+000  0.000000e+000  0.000000e+000
    outer loop
      vertex  8.250000e+000 -1.550000e+001  2.800000e+000
      vertex  8.250000e+000 -1.550000e+001 -1.221245e-015
      vertex  8.250000e+000 -1.375000e+001  2.800000e+000
    endloop
  endfacet
  facet normal  1.000000e+000  0.000000e+000  0.000000e+000
    outer loop
      vertex  8.250000e+000 -1.375000e+001  2.800000e+000
      vertex  8.250000e+000 -1.550000e+001 -1.221245e-015
      vertex  8.250000e+000 -1.375000e+001  0.000000e+000
    endloop
  endfacet
  facet normal -1.000000e+000  0.000000e+000  0.000000e+000
    outer loop
      vertex -8.250000e+000 -1.550000e+001 -1.998401e-015
      vertex -8.250000e+000 -1.550000e+001  2.800000e+000
      vertex -8.250000e+000 -1.375000e+001 -1.998401e-015
    endloop
  endfacet
  facet normal -1.000000e+000  0.000000e+000  0.000000e+000
    outer loop
      vertex -8.250000e+000 -1.375000e+001 -1.998401e-015
      vertex -8.250000e+000 -1.550000e+001  2.800000e+000
      vertex -8.250000e+000 -1.375000e+001  2.800000e+000
    endloop
  endfacet
  facet normal  -0.000000e+000 -1.000000e+000  0.000000e+000
    outer loop
      vertex -1.275000e+001 -6.150000e+000  1.600000e+000
      vertex -9.750000e+000 -6.150000e+000  4.300000e+000
      vertex -1.275000e+001 -6.150000e+000  4.300000e+000
    endloop
  endfacet
  facet normal  0.000000e+000 -1.000000e+000  0.000000e+000
    outer loop
      vertex -9.750000e+000 -6.150000e+000  4.300000e+000
      vertex -1.275000e+001 -6.150000e+000  1.600000e+000
      vertex -9.750000e+000 -6.150000e+000  2.800000e+000
    endloop
  endfacet
  facet normal  0.000000e+000 -1.000000e+000  -0.000000e+000
    outer loop
      vertex -9.750000e+000 -6.150000e+000  2.800000e+000
      vertex -1.275000e+001 -6.150000e+000  1.600000e+000
      vertex  1.275000e+001 -6.150000e+000  1.600000e+000
    endloop
  endfacet
  facet normal  0.000000e+000 -1.000000e+000  0.000000e+000
    outer loop
      vertex -9.750000e+000 -6.150000e+000  2.800000e+000
      vertex  1.275000e+001 -6.150000e+000  1.600000e+000
      vertex  9.750000e+000 -6.150000e+000  2.800000e+000
    endloop
  endfacet
  facet normal  0.000000e+000 -1.000000e+000  0.000000e+000
    outer loop
      vertex  9.750000e+000 -6.150000e+000  2.800000e+000
      vertex  1.275000e+001 -6.150000e+000  1.600000e+000
      vertex  1.275000e+001 -6.150000e+000  4.300000e+000
    endloop
  endfacet
  facet normal  -0.000000e+000 -1.000000e+000  0.000000e+000
    outer loop
      vertex  9.750000e+000 -6.150000e+000  2.800000e+000
      vertex  1.275000e+001 -6.150000e+000  4.300000e+000
      vertex  9.750000e+000 -6.150000e+000  4.300000e+000
    endloop
  endfacet
  facet normal  0.000000e+000 -9.999999e-001  0.000000e+000
    outer loop
      vertex -9.750000e+000  1.075000e+001  2.800000e+000
      vertex  9.750000e+000  1.075000e+001  2.800000e+000
      vertex -9.750000e+000  1.075000e+001  4.300000e+000
    endloop
  endfacet
  facet normal  0.000000e+000 -9.999999e-001  0.000000e+000
    outer loop
      vertex -9.750000e+000  1.075000e+001  4.300000e+000
      vertex  9.750000e+000  1.075000e+001  2.800000e+000
      vertex  9.750000e+000  1.075000e+001  4.300000e+000
    endloop
  endfacet
  facet normal  0.000000e+000  0.000000e+000 -9.999999e-001
    outer loop
      vertex  1.425000e+001  1.375000e+001  0.000000e+000
      vertex  1.425000e+001 -1.375000e+001  0.000000e+000
      vertex  8.250000e+000 -1.375000e+001  0.000000e+000
    endloop
  endfacet
  facet normal  1.211152e-016 -2.642514e-017 -1.000000e+000
    outer loop
      vertex  1.425000e+001  1.375000e+001  0.000000e+000
      vertex  8.250000e+000 -1.375000e+001  0.000000e+000
      vertex -8.250000e+000 -1.375000e+001 -1.998401e-015
    endloop
  endfacet
  facet normal -3.330669e-016  3.451784e-016 -9.999999e-001
    outer loop
      vertex  1.425000e+001  1.375000e+001  0.000000e+000
      vertex -8.250000e+000 -1.375000e+001 -1.998401e-015
      vertex -1.425000e+001 -1.375000e+001  0.000000e+000
    endloop
  endfacet
  facet normal  0.000000e+000  0.000000e+000 -1.000000e+000
    outer loop
      vertex  1.425000e+001  1.375000e+001  0.000000e+000
      vertex -1.425000e+001 -1.375000e+001  0.000000e+000
      vertex -1.425000e+001  1.375000e+001  0.000000e+000
    endloop
  endfacet
  facet normal  4.710037e-017  0.000000e+000 -1.000000e+000
    outer loop
      vertex -8.250000e+000 -1.550000e+001 -1.998401e-015
      vertex -8.250000e+000 -1.375000e+001 -1.998401e-015
      vertex  8.250000e+000 -1.550000e+001 -1.221245e-015
    endloop
  endfacet
  facet normal  1.211152e-016  6.978545e-016 -1.000000e+000
    outer loop
      vertex  8.250000e+000 -1.550000e+001 -1.221245e-015
      vertex -8.250000e+000 -1.375000e+001 -1.998401e-015
      vertex  8.250000e+000 -1.375000e+001  0.000000e+000
    endloop
  endfacet
  facet normal  -0.000000e+000 -1.000000e+000  0.000000e+000
    outer loop
      vertex -8.250000e+000 -1.550000e+001 -1.998401e-015
      vertex  8.250000e+000 -1.550000e+001 -1.221245e-015
      vertex -8.250000e+000 -1.550000e+001  2.800000e+000
    endloop
  endfacet
  facet normal  0.000000e+000 -1.000000e+000  0.000000e+000
    outer loop
      vertex -8.250000e+000 -1.550000e+001  2.800000e+000
      vertex  8.250000e+000 -1.550000e+001 -1.221245e-015
      vertex  8.250000e+000 -1.550000e+001  2.800000e+000
    endloop
  endfacet
  facet normal -1.000000e+000  0.000000e+000  0.000000e+000
    outer loop
      vertex  1.275000e+001 -6.150000e+000  1.600000e+000
      vertex  1.275000e+001 -1.225000e+001  1.600000e+000
      vertex  1.275000e+001 -6.150000e+000  4.300000e+000
    endloop
  endfacet
  facet normal -1.000000e+000  -0.000000e+000  0.000000e+000
    outer loop
      vertex  1.275000e+001 -6.150000e+000  4.300000e+000
      vertex  1.275000e+001 -1.225000e+001  1.600000e+000
      vertex  1.275000e+001 -1.225000e+001  4.300000e+000
    endloop
  endfacet
  facet normal  1.000000e+000  0.000000e+000  0.000000e+000
    outer loop
      vertex -1.275000e+001 -1.225000e+001  1.600000e+000
      vertex -1.275000e+001 -6.150000e+000  1.600000e+000
      vertex -1.275000e+001 -1.225000e+001  4.300000e+000
    endloop
  endfacet
  facet normal  1.000000e+000  -0.000000e+000  0.000000e+000
    outer loop
      vertex -1.275000e+001 -1.225000e+001  4.300000e+000
      vertex -1.275000e+001 -6.150000e+000  1.600000e+000
      vertex -1.275000e+001 -6.150000e+000  4.300000e+000
    endloop
  endfacet
  facet normal  0.000000e+000  0.000000e+000  1.000000e+000
    outer loop
      vertex -1.275000e+001 -1.225000e+001  1.600000e+000
      vertex  1.275000e+001 -1.225000e+001  1.600000e+000
      vertex -1.275000e+001 -6.150000e+000  1.600000e+000
    endloop
  endfacet
  facet normal  -0.000000e+000  0.000000e+000  1.000000e+000
    outer loop
      vertex -1.275000e+001 -6.150000e+000  1.600000e+000
      vertex  1.275000e+001 -1.225000e+001  1.600000e+000
      vertex  1.275000e+001 -6.150000e+000  1.600000e+000
    endloop
  endfacet
  facet normal  1.000000e+000  -0.000000e+000  0.000000e+000
    outer loop
      vertex  1.425000e+001  1.375000e+001  4.300000e+000
      vertex  1.425000e+001 -1.375000e+001  4.300000e+000
      vertex  1.425000e+001  1.375000e+001  0.000000e+000
    endloop
  endfacet
  facet normal  1.000000e+000  0.000000e+000  0.000000e+000
    outer loop
      vertex  1.425000e+001  1.375000e+001  0.000000e+000
      vertex  1.425000e+001 -1.375000e+001  4.300000e+000
      vertex  1.425000e+001 -1.375000e+001  0.000000e+000
    endloop
  endfacet
  facet normal -1.000000e+000  -0.000000e+000  0.000000e+000
    outer loop
      vertex -1.425000e+001 -1.375000e+001  4.300000e+000
      vertex -1.425000e+001  1.375000e+001  4.300000e+000
      vertex -1.425000e+001 -1.375000e+001  0.000000e+000
    endloop
  endfacet
  facet normal -1.000000e+000  0.000000e+000  0.000000e+000
    outer loop
      vertex -1.425000e+001 -1.375000e+001  0.000000e+000
      vertex -1.425000e+001  1.375000e+001  4.300000e+000
      vertex -1.425000e+001  1.375000e+001  0.000000e+000
    endloop
  endfacet
  facet normal  0.000000e+000  1.000000e+000  0.000000e+000
    outer loop
      vertex -1.425000e+001  1.375000e+001  4.300000e+000
      vertex  1.425000e+001  1.375000e+001  4.300000e+000
      vertex -1.425000e+001  1.375000e+001  0.000000e+000
    endloop
  endfacet
  facet normal  0.000000e+000  1.000000e+000  0.000000e+000
    outer loop
      vertex -1.425000e+001  1.375000e+001  0.000000e+000
      vertex  1.425000e+001  1.375000e+001  4.300000e+000
      vertex  1.425000e+001  1.375000e+001  0.000000e+000
    endloop
  endfacet
endsolid CATIA STL
